<?xml version="1.0" encoding="utf-8"?>
<!-- Generator: Adobe Illustrator 22.0.0, SVG Export Plug-In . SVG Version: 6.00 Build 0)  -->
<svg version="1.1" id="Layer_1" xmlns="http://www.w3.org/2000/svg" xmlns:xlink="http://www.w3.org/1999/xlink" x="0px" y="0px"
	 viewBox="0 0 150 44" style="enable-background:new 0 0 150 44;" xml:space="preserve">
<style type="text/css">
	.st0{fill:#536D79;}
	.st1{fill:#F7B583;}
	.st2{fill:none;}
	.st3{fill:#EE6B09;}
	.st4{fill:#EE6C09;}
</style>
<g>
	<g>
		<path class="st0" d="M72,16.6c-0.2,0.3-0.4,0.5-0.6,0.8c0.1,0.1,0.2,0.1,0.3,0.2c0.9,0.6,1.7,1.2,2.5,2c3.4,3.6,4.8,7.8,3.8,12.7
			c-0.9,4.6-3.5,8-7.7,10.1c-1.7,0.9-3.6,1.3-5.5,1.5h-1.4c-1.9-0.1-3.7-0.5-5.4-1.4c-3.7-1.8-6.2-4.7-7.5-8.6
			c-0.5-1.5-0.6-3-0.6-4.5c0-8.2,0-16.4,0-24.5c0-1.6,1.1-3.4,3.2-3.7c2.4-0.3,4.1,1.4,4.3,3.2c0,0.2,0,0.4,0,0.5
			c0,6.9,0,13.7,0,20.6c0,1.5,0,2.9,0,4.4c0.1,3.2,2.5,5.9,5.6,6.4c3.4,0.6,6.6-1.6,7.6-4.8c1-3.5-1.1-7.7-5.2-8.5
			c-0.8-0.2-1.6-0.1-2.4,0c-0.8,0.1-1.6-0.2-2.2-0.7c-1.1-1-1.2-2.7-0.2-3.9c1.2-1.4,2.4-2.8,3.6-4.2c3.2-3.7,6.3-7.5,9.5-11.2
			c0.4-0.4,0.7-0.9,1.1-1.3c0.6-0.7,1.4-1.2,2.4-1.3c0.2,0,0.5,0,0.7-0.1H78c0.1,0,0.2,0.1,0.2,0.1c1.4,0.3,2.5,1.1,3,2.4
			c0.5,1.4,0.3,2.6-0.6,3.7C77.7,9.8,74.9,13.2,72,16.6z"/>
		<path class="st1" d="M132,29.3c0-0.1,0-0.2,0-0.3c0-4,0-8,0-12c0-0.4,0-0.8,0-1.3L132,29.3z"/>
		<path class="st2" d="M92.5,0.3c-0.3,0-0.6,0-0.9,0"/>
		<path class="st0" d="M45.5,4.9v13.5c0,3.6,0,7.3,0,10.9c0,0.9-0.1,1.8-0.2,2.7c-0.3,1.6-0.8,3.1-1.6,4.5c-2,3.5-4.9,5.8-8.7,6.9
			c-0.9,0.3-1.9,0.4-2.9,0.5h-1.9c-2.7-0.2-5.1-1-7.3-2.6c-2.5-1.8-4.2-4.1-5.3-7c-0.6-1.6-0.8-3.3-0.8-5c0-8.2,0-16.3,0-24.5
			c0-1.7,1.2-3.5,3.2-3.7c2.3-0.3,4,1.3,4.2,3.2c0,0.2,0,0.4,0,0.6c0,7.9,0,15.9,0,23.8c0,0.4,0,0.7,0,1.1c0.1,3.2,2.4,5.9,5.6,6.5
			c3.8,0.7,7.2-1.9,7.8-5.4C38,30.4,38,30,38,29.5c0-1.2,0-2.4,0-3.6c0-6.4,0-12.8,0-19.2c0-0.7,0-1.4,0-2.1c0-1.7,1.3-3.2,3-3.6
			c2.1-0.4,4,0.9,4.4,3C45.5,4.4,45.5,4.6,45.5,4.9z"/>
		<path class="st3" d="M132,29.6v10.6c0,0.1,0,0.2,0,0.3c-0.1,1.8-1.4,3.1-3.2,3.4c0,0-0.1,0-0.1,0h-0.8c-0.9-0.1-1.7-0.5-2.3-1.2
			c-0.7-0.7-1-1.6-1-2.6V29.4c0-3.4,0-6.8,0-10.2c0-1.2,0-2.3-0.1-3.5c-0.1-1.9-0.9-3.5-2.1-5c-1.4-1.7-3.2-2.7-5.4-3
			c-4.9-0.8-9.1,2.4-10.1,6.7c-1,4,0.9,8.1,4.5,10c2.3,1.2,4.7,1.4,7.2,0.5c1.5-0.5,2.9-0.2,4,0.9c1.9,1.9,1,5.2-1.5,6.1
			c-1.2,0.4-2.5,0.7-3.8,0.8c-2.9,0.3-5.7-0.2-8.4-1.4c-4.7-2.1-8.1-6.4-9.1-11.5c-1.7-8.2,3-16.3,10.9-18.8
			c1.4-0.5,2.9-0.7,4.3-0.8h1.4c2.1,0.1,4.1,0.5,5.9,1.4c5,2.4,8.1,6.2,9.3,11.6c0.2,0.8,0.3,1.6,0.3,2.4c0,0.4,0,0.8,0,1.3v12
			c0,0.1,0,0.2,0,0.3C132,29.4,132,29.5,132,29.6z"/>
		<path class="st4" d="M95.8,4c0,12,0,24,0,36c0,2-1.3,3.6-3.3,3.9c0,0,0,0-0.1,0h-0.7c-0.5-0.1-0.9-0.2-1.4-0.4
			c-1.3-0.7-1.9-1.8-2-3.3V4.1c0-1.5,0.6-2.6,1.9-3.3c0.4-0.3,0.9-0.4,1.4-0.5h0.9c1.1,0.2,2,0.7,2.6,1.6C95.5,2.5,95.8,3.2,95.8,4z
			"/>
	</g>
</g>
</svg>
